<?xml version="1.0" standalone="no"?>
<!DOCTYPE svg PUBLIC "-//W3C//DTD SVG 20010904//EN"
 "http://www.w3.org/TR/2001/REC-SVG-20010904/DTD/svg10.dtd">
<svg version="1.0" xmlns="http://www.w3.org/2000/svg"
 width="192.000000pt" height="64.000000pt" viewBox="0 0 192.000000 64.000000"
 preserveAspectRatio="xMidYMid meet">
<metadata>
Created by potrace 1.15, written by Peter Selinger 2001-2017
</metadata>
<g transform="translate(0.000000,64.000000) scale(0.100000,-0.100000)"
fill="#000000" stroke="none">
<path d="M0 555 l0 -85 660 0 c580 0 660 -2 660 -15 0 -10 -10 -15 -30 -15
l-30 0 0 -136 c0 -120 -2 -135 -15 -124 -11 9 -15 33 -15 91 l0 79 -64 0 c-99
0 -117 -45 -51 -125 20 -26 35 -48 32 -51 -11 -11 -97 111 -97 137 0 51 28 71
108 77 68 4 72 6 72 28 l0 24 -135 0 -135 0 0 -136 c0 -120 -2 -135 -15 -124
-9 7 -15 29 -15 51 0 43 0 44 -46 27 -40 -14 -75 -2 -100 36 -23 36 -12 70 31
90 38 18 68 15 98 -12 16 -14 17 -12 17 26 l0 42 -123 0 -122 0 1 -52 c0 -50
2 -53 27 -56 15 -2 27 -10 27 -18 0 -17 -33 -18 -61 -3 -15 7 -24 7 -35 -2
-22 -18 -17 -32 26 -87 55 -68 50 -76 -7 -12 -101 112 -115 150 -54 150 34 0
53 25 44 58 -5 20 -12 22 -94 22 l-88 0 6 -35 c5 -30 1 -42 -26 -75 -17 -21
-31 -43 -31 -48 0 -5 18 -32 40 -60 55 -68 50 -76 -7 -12 -101 112 -115 150
-54 150 34 0 53 25 44 58 -5 20 -12 22 -89 22 l-84 0 0 -142 c0 -140 0 -141
-20 -123 -15 14 -20 31 -20 75 l0 56 -34 -4 c-18 -2 -44 1 -56 8 -16 9 -25 9
-36 -1 -22 -18 -17 -32 26 -87 55 -68 50 -76 -7 -12 -101 112 -115 150 -54
150 34 0 53 25 44 58 -5 19 -12 22 -59 22 l-54 0 0 -220 0 -220 960 0 960 0 0
320 0 320 -960 0 -960 0 0 -85z m1451 18 c15 -14 35 -42 44 -64 17 -37 21 -39
62 -39 32 0 43 -4 43 -15 0 -10 -10 -15 -30 -15 l-30 0 0 -135 c0 -74 -4 -135
-8 -135 -25 0 -32 30 -32 146 0 113 -1 122 -20 127 -26 7 -26 27 0 27 18 0 19
3 9 23 -49 94 -138 103 -127 12 3 -28 1 -35 -11 -33 -23 5 -35 54 -21 88 12
30 53 51 80 42 8 -3 27 -16 41 -29z"/>
<path d="M146 388 c0 -50 2 -53 28 -56 40 -5 56 14 56 64 l0 44 -43 0 -42 0 1
-52z"/>
<path d="M821 341 c-30 -23 -25 -55 11 -59 31 -4 96 47 84 66 -11 18 -68 14
-95 -7z"/>
</g>
</svg>
