<?xml version="1.0" standalone="no"?>
<!DOCTYPE svg PUBLIC "-//W3C//DTD SVG 20010904//EN"
 "http://www.w3.org/TR/2001/REC-SVG-20010904/DTD/svg10.dtd">
<svg version="1.0" xmlns="http://www.w3.org/2000/svg"
 width="448.000000pt" height="64.000000pt" viewBox="0 0 448.000000 64.000000"
 preserveAspectRatio="xMidYMid meet">
<metadata>
Created by potrace 1.15, written by Peter Selinger 2001-2017
</metadata>
<g transform="translate(0.000000,64.000000) scale(0.100000,-0.100000)"
fill="#000000" stroke="none">
<path d="M0 320 l0 -320 2240 0 2240 0 0 320 0 320 -2240 0 -2240 0 0 -320z
m1460 81 l35 -4 -35 -6 -35 -6 0 -82 c1 -90 12 -116 43 -97 9 6 20 26 23 45 6
32 6 32 8 6 2 -43 -15 -67 -49 -67 -45 0 -60 31 -60 122 0 74 -1 78 -22 79
-18 1 -19 2 -5 6 18 5 46 50 49 80 0 10 4 -2 7 -27 6 -43 8 -45 41 -49z
m-1383 -31 c4 0 15 8 25 17 25 22 77 21 94 -2 9 -12 14 -46 14 -93 0 -65 2
-74 20 -79 39 -10 19 -23 -36 -23 -34 0 -53 4 -49 10 3 5 13 10 21 10 11 0 14
16 14 74 0 41 -3 81 -6 90 -9 24 -60 20 -78 -6 -22 -31 -23 -158 -2 -158 8 0
18 -5 21 -10 4 -6 -15 -10 -49 -10 -31 0 -56 5 -56 10 0 6 7 10 15 10 12 0 15
16 15 84 0 70 -3 85 -17 92 -15 6 -12 8 12 13 24 5 31 3 33 -11 2 -10 6 -18 9
-18z m344 14 c15 -14 19 -31 19 -89 0 -52 4 -76 15 -85 16 -13 18 -10 28 35 4
16 5 15 6 -5 2 -45 -47 -69 -67 -33 -9 16 -11 16 -27 0 -33 -33 -125 -12 -125
28 0 27 42 65 79 71 54 9 65 17 57 48 -9 36 -41 51 -74 36 -20 -8 -23 -13 -13
-20 17 -10 6 -43 -12 -38 -22 8 -19 45 5 63 27 19 81 14 109 -11z m166 -14 c4
0 15 8 25 17 27 24 77 21 99 -6 17 -20 20 -21 25 -6 10 25 49 36 81 24 39 -15
43 -24 43 -111 0 -61 3 -78 14 -78 8 0 18 -4 21 -10 4 -6 -15 -10 -49 -10 -55
0 -75 13 -36 23 17 4 20 14 20 65 0 79 -13 112 -43 112 -40 0 -61 -34 -65
-106 -4 -60 -3 -66 17 -71 40 -10 21 -23 -35 -23 -34 0 -53 4 -49 10 3 5 13
10 21 10 11 0 14 16 14 74 0 41 -3 81 -6 90 -9 24 -60 20 -78 -6 -22 -31 -23
-158 -2 -158 8 0 18 -5 21 -10 4 -6 -15 -10 -49 -10 -31 0 -56 5 -56 10 0 6 7
10 15 10 12 0 15 16 15 84 0 70 -3 85 -17 92 -15 6 -12 8 12 13 24 5 31 3 33
-11 2 -10 6 -18 9 -18z m474 14 c15 -14 19 -31 19 -89 0 -52 4 -76 15 -85 16
-13 18 -10 28 35 4 16 5 15 6 -5 2 -45 -47 -69 -67 -33 -9 16 -11 16 -27 0
-33 -33 -125 -12 -125 28 0 27 42 65 79 71 54 9 65 17 57 48 -9 36 -41 51 -74
36 -20 -8 -23 -13 -13 -20 17 -10 6 -43 -12 -38 -22 8 -19 45 5 63 27 19 81
14 109 -11z m238 -14 c0 -19 -3 -28 -6 -20 -19 51 -82 69 -104 29 -14 -27 -2
-39 59 -59 55 -18 75 -48 60 -91 -12 -34 -30 -41 -97 -37 l-51 3 0 40 1 40 20
-38 c18 -35 23 -38 56 -35 74 6 70 63 -7 85 -55 16 -70 29 -70 64 0 40 33 60
92 57 48 -3 48 -3 47 -38z m364 28 c31 -16 46 -39 47 -70 l0 -28 -74 0 -74 0
9 -37 c15 -67 80 -86 118 -35 11 15 21 22 21 15 0 -24 -43 -53 -81 -53 -108 0
-143 153 -47 207 29 16 53 16 81 1z"/>
<path d="M360 297 c-61 -21 -65 -97 -5 -97 32 0 55 31 55 73 0 41 0 41 -50 24z"/>
<path d="M1000 297 c-61 -21 -65 -97 -5 -97 32 0 55 31 55 73 0 41 0 41 -50
24z"/>
<path d="M1590 380 c-11 -11 -20 -31 -20 -45 0 -24 3 -25 55 -25 59 0 67 9 44
53 -22 42 -48 48 -79 17z"/>
</g>
</svg>
